<svg xmlns="http://www.w3.org/2000/svg" viewBox="0 0 100 100">
    <path
        d="M 85.9027 50.5287 c -0.0032425 -0.13908 -0.030838 -0.275398 -0.082077 -0.406319 c -0.0128326 -0.0328789 -0.0310822 -0.0608406 -0.0466843 -0.0921593 c -0.0259171 -0.0524406 -0.0454788 -0.107521 -0.0794373 -0.156601 L 75.188 34.709 v -9.85896 c 0 -0.66264 -0.537247 -1.2 -1.2 -1.2 H 55.8825 c -0.557518 -2.73516 -2.98128 -4.8 -5.87868 -4.8 c -2.89727 0 -5.32104 2.06484 -5.87868 4.8 H 25.762 c -0.66276 0 -1.2 0.537361 -1.2 1.2 v 9.85896 L 14.0555 49.8736 c -0.0339603 0.0490799 -0.0535202 0.10416 -0.0794401 0.156601 c -0.0156002 0.0313187 -0.0338306 0.0592804 -0.0466805 0.0921593 c -0.05124 0.13092 -0.0788393 0.267239 -0.0820799 0.406319 c -0.0002394 0.0099602 -0.00564 0.0181198 -0.00564 0.0282021 c 0 6.573 5.3472 11.9203 11.9203 11.9203 c 6.573 0 11.9203 -5.34732 11.9203 -11.9203 c 0 -0.0100822 -0.0055199 -0.0182419 -0.0057602 -0.0282021 c -0.0032387 -0.13908 -0.030838 -0.275398 -0.082077 -0.406319 c -0.012722 -0.0328789 -0.0310822 -0.0608406 -0.0466805 -0.0921593 c -0.0259209 -0.0524406 -0.0453606 -0.107521 -0.0794411 -0.156601 L 26.962 34.709 v -8.65896 h 17.1632 c 0.478439 2.34732 2.33148 4.20024 4.67868 4.67868 v 42.2684 H 34.5305 c -0.662762 0 -1.2 0.537239 -1.2 1.2 v 8.25288 c 0 0.662643 0.537239 1.2 1.2 1.2 h 30.9469 c 0.662628 0 1.2 -0.537361 1.2 -1.2 v -8.25288 c 0 -0.662758 -0.537369 -1.2 -1.2 -1.2 H 51.2039 V 30.7287 c 2.34732 -0.478439 4.20024 -2.33136 4.67868 -4.67868 h 16.9055 v 8.65896 L 62.2817 49.8736 c -0.0340805 0.0490799 -0.0535202 0.10416 -0.0794373 0.156601 c -0.0156021 0.0313187 -0.0339622 0.0592804 -0.0466805 0.0921593 c -0.0512428 0.13092 -0.0788422 0.267239 -0.0820808 0.406319 c -0.0002403 0.0099602 -0.0057602 0.0181198 -0.0057602 0.0282021 c 0 6.573 5.34732 11.9203 11.9203 11.9203 c 6.57312 0 11.9203 -5.34732 11.9203 -11.9203 C 85.9083 50.5468 85.9029 50.5386 85.9027 50.5287 Z M 25.762 60.0772 c -4.84212 0 -8.84304 -3.6366 -9.4362 -8.32032 h 18.8723 C 34.605 56.4406 30.6041 60.0772 25.762 60.0772 Z M 17.3326 49.3569 l 8.4294 -12.1664 l 8.42928 12.1664 H 17.3326 Z M 64.2774 81.25 H 35.7305 v -5.85288 h 28.5469 V 81.25 Z M 51.2039 28.2288 c -0.377163 0.13452 -0.777123 0.221161 -1.2 0.221161 c -0.42276 0 -0.82272 -0.0867615 -1.2 -0.221161 c -1.01652 -0.36252 -1.81632 -1.1622 -2.17884 -2.17884 c -0.134399 -0.377159 -0.221161 -0.777119 -0.221161 -1.2 s 0.0866432 -0.82284 0.221161 -1.2 C 47.122 22.2562 48.4416 21.25 50.0039 21.25 c 1.5624 0 2.88193 1.0062 3.37896 2.4 c 0.134399 0.377161 0.221039 0.777121 0.221039 1.2 s -0.0866394 0.82284 -0.221039 1.2 C 53.0203 27.0666 52.2205 27.8664 51.2039 28.2288 Z M 73.988 37.1904 l 8.4294 12.1664 H 65.5588 L 73.988 37.1904 Z M 73.988 60.0772 c -4.84212 0 -8.84303 -3.6366 -9.43608 -8.32032 h 18.8723 C 82.8311 56.4406 78.8301 60.0772 73.988 60.0772 Z"
        fill="none"
       />
</svg>